HIERARCHY
ROOT Hips
{
	OFFSET 0.00000 0.00000 0.00000
	CHANNELS 6 Xposition Yposition Zposition Zrotation Yrotation Xrotation 
	JOINT LHipJoint
	{
		OFFSET 0 0 0
		CHANNELS 3 Zrotation Yrotation Xrotation
		JOINT LeftHip
		{
			OFFSET 1.37959 -1.78713 0.86582
			CHANNELS 3 Zrotation Yrotation Xrotation
			JOINT LeftKnee
			{
				OFFSET 2.54611 -6.99539 0.00000
				CHANNELS 3 Zrotation Yrotation Xrotation
				JOINT LeftAnkle
				{
					OFFSET 2.59951 -7.14211 0.00000
					CHANNELS 3 Zrotation Yrotation Xrotation
					JOINT LeftToe
					{
						OFFSET 0.18493 -0.50810 1.96120
						CHANNELS 3 Zrotation Yrotation Xrotation
						End Site
						{
							OFFSET 0.00000 -0.00000 1.02054
						}
					}
				}
			}
		}
	}
	JOINT RHipJoint
	{
		OFFSET 0 0 0
		CHANNELS 3 Zrotation Yrotation Xrotation
		JOINT RightHip
		{
			OFFSET -1.33564 -1.78713 0.86582
			CHANNELS 3 Zrotation Yrotation Xrotation
			JOINT RightKnee
			{
				OFFSET -2.52705 -6.94302 0.00000
				CHANNELS 3 Zrotation Yrotation Xrotation
				JOINT RightAnkle
				{
					OFFSET -2.55964 -7.03257 0.00000
					CHANNELS 3 Zrotation Yrotation Xrotation
					JOINT RightToe
					{
						OFFSET -0.25804 -0.70896 2.12109
						CHANNELS 3 Zrotation Yrotation Xrotation
						End Site
						{
							OFFSET -0.00000 -0.00000 1.11821
						}
					}
				}
			}
		}
	}
	JOINT lowerback
	{
		OFFSET 0 0 0
		CHANNELS 3 Zrotation Yrotation Xrotation
		JOINT Chest
		{
			OFFSET -0.02031 2.24248 -0.18900
			CHANNELS 3 Zrotation Yrotation Xrotation
			JOINT Chest2
			{
				OFFSET 0.08342 2.24689 -0.03799
				CHANNELS 3 Zrotation Yrotation Xrotation
				JOINT lowerneck
				{
					OFFSET 0 0 0
					CHANNELS 3 Zrotation Yrotation Xrotation
					JOINT Neck
					{
						OFFSET -0.11607 1.55844 0.24628
						CHANNELS 3 Zrotation Yrotation Xrotation
						JOINT Head
						{
							OFFSET 0.06877 1.60174 -0.17013
							CHANNELS 3 Zrotation Yrotation Xrotation
							End Site
							{
								OFFSET 0.03358 1.61266 -0.08543
							}
						}
					}
				}
				JOINT LeftCollar
				{
					OFFSET 0 0 0
					CHANNELS 3 Zrotation Yrotation Xrotation
					JOINT LeftShoulder
					{
						OFFSET 3.47537 0.55866 -0.72348
CHANNELS 3 Zrotation Xrotation Yrotation
						JOINT LeftElbow
						{
OFFSET 0 -5.381540 0.000000
CHANNELS 3 Zrotation Xrotation Yrotation
							JOINT LeftWrist
							{
OFFSET 0 -3.333120 0.000000
CHANNELS 3 Zrotation Xrotation Yrotation
								JOINT lhand
								{
									OFFSET 0 0 0
CHANNELS 3 Zrotation Xrotation Yrotation
									JOINT LFingers
									{
OFFSET 0 -0.710790 0.000000
CHANNELS 3 Zrotation Xrotation Yrotation
										End Site
										{
OFFSET 0 -0.573060 0.000000
										}
									}
								}
								JOINT LThumb
								{
OFFSET 0 0.000000 0.000000
CHANNELS 3 Zrotation Xrotation Yrotation
									End Site
									{
OFFSET 0 -0.581810 0.581810
									}
								}
							}
						}
					}
				}
				JOINT RightCollar
				{
					OFFSET 0 0 0
					CHANNELS 3 Zrotation Yrotation Xrotation
					JOINT RightShoulder
					{
						OFFSET -3.27844 0.90739 -0.35708
CHANNELS 3 Zrotation Xrotation Yrotation
						JOINT RightElbow
						{
OFFSET 0 -5.169540 0.000000
CHANNELS 3 Zrotation Xrotation Yrotation
							JOINT RightWrist
							{
OFFSET 0 -3.382870 0.000000
CHANNELS 3 Zrotation Xrotation Yrotation
								JOINT rhand
								{
									OFFSET 0 0 0
CHANNELS 3 Zrotation Xrotation Yrotation
									JOINT RFingers
									{
OFFSET 0 -0.817970 0.000000
CHANNELS 3 Zrotation Xrotation Yrotation
										End Site
										{
OFFSET 0 -0.659470 0.000000
										}
									}
								}
								JOINT RThumb
								{
OFFSET 0 0.000000 0.000000
CHANNELS 3 Zrotation Xrotation Yrotation
									End Site
									{
OFFSET 0 -0.669530 0.669530
									}
								}
							}
						}
					}
				}
			}
		}
	}
}
MOTION
Frames: 8
Frame Time: 0.008333333333333333
8.349500 17.817600 10.409800 -177.790000 -42.351900 -174.520000 0.000000 0.000000 0.000000 -13.225900 10.023400 -24.848500 5.710500 14.141800 43.808500 0.453700 10.205500 -20.242600 0.002000 0.286800 0.788100 0.000000 0.000000 0.000000 29.374700 -14.769200 -22.494100 -2.798600 -10.361700 30.156200 -2.823200 -13.959500 -38.988900 -3.459200 -11.403700 33.653700 2.208100 3.917200 2.687000 2.087400 5.269700 0.216500 0.712200 2.604300 -1.277000 -7.032900 1.614800 -14.009200 -1.226900 3.624600 26.544500 1.165700 0.467100 10.783800 -0.000000 0.000000 0.000000 10.043300 -3.419600 -13.033700 20.938600 -31.756700 6.017600 9.197000 8.150300 -40.305300 0.000000 0.000000 0.000000 -7.125000 0.000000 0.000000 -36.312400 67.282900 20.546400 -0.000000 0.000000 0.000000 -12.535400 7.036900 16.588900 -14.687300 -23.708600 -3.099100 -21.813800 -16.971000 -14.708900 0.000000 0.000000 0.000000 7.125000 0.000000 -0.000000 3.872500 14.217000 2.809300
8.299384 17.787955 10.524959 -178.918693 -46.887050 -173.452903 0.000000 0.000000 0.000000 -15.025899 10.565565 -24.470731 5.037335 13.424193 40.980658 0.848893 7.242379 -21.511896 0.332621 -3.627865 -10.040886 0.000000 0.000000 0.000000 28.622654 -16.313762 -25.411319 -3.293192 -11.154054 32.802540 -4.995196 -9.804276 -46.147752 -6.315053 -14.724479 46.228982 2.677844 3.760033 2.187957 1.707116 5.063263 0.077206 0.104470 2.503646 -1.066265 -7.231454 1.914677 -14.263920 -1.386620 4.212688 26.746309 1.224276 0.693359 10.894885 0.000000 0.000000 0.000000 9.910941 -3.762442 -9.694284 20.093341 -30.754349 5.579183 7.824560 7.923501 -40.085454 0.000000 0.000000 0.000000 -7.125000 0.000000 0.000000 -37.383689 66.701541 20.738386 0.000000 0.000000 0.000000 -11.964723 6.956327 17.481538 -15.459646 -24.782144 -3.416483 -21.691105 -18.225116 -14.911870 0.000000 0.000000 0.000000 7.125000 0.000000 0.000000 3.966071 14.015618 2.895660
8.253260 17.752610 10.625093 -180.256134 -51.329699 -172.291139 0.000000 0.000000 0.000000 -16.546021 10.546013 -23.782147 4.251607 12.486014 37.476654 1.038949 5.177432 -21.783932 0.181585 -2.741961 -7.561277 0.000000 0.000000 0.000000 27.648041 -17.000652 -27.693020 -3.911998 -12.040363 35.877702 -4.706159 -12.491048 -46.325626 -5.441754 -13.847794 42.664717 2.474939 3.634589 1.677658 1.736724 4.875421 0.039041 0.285397 2.414540 -0.842263 -7.976805 2.126893 -14.712423 -1.378770 4.801597 26.976098 1.438622 0.880127 11.040232 0.000000 0.000000 0.000000 9.240931 -3.844089 -7.351298 19.688343 -30.264877 5.373464 7.565230 8.137448 -39.914100 0.000000 0.000000 0.000000 -7.125000 0.000000 0.000000 -37.386410 66.492107 20.567735 0.000000 0.000000 0.000000 -12.606488 6.796458 19.510343 -16.595130 -26.318263 -3.907609 -20.770889 -20.368161 -15.923836 0.000000 0.000000 0.000000 7.125000 0.000000 0.000000 4.640648 13.051583 3.483701
8.211427 17.708568 10.736734 -182.535806 -56.011702 -171.225706 0.000000 0.000000 0.000000 -18.040279 9.118766 -21.289787 3.622055 11.639414 34.468311 1.236103 2.758990 -22.163248 0.082970 -1.856607 -5.109489 0.000000 0.000000 0.000000 25.525932 -18.033371 -29.225388 -4.776446 -13.126122 39.844927 -2.551903 -19.419783 -41.872533 -3.066206 -10.797366 31.603676 2.192902 3.655946 2.292316 1.514953 4.916955 0.304251 0.181473 2.439456 -0.917715 -7.911796 2.094999 -15.139657 -1.823639 4.968142 26.875818 1.298929 0.927240 11.103532 0.000000 0.000000 0.000000 9.131179 -4.528541 -6.098917 18.971865 -29.383619 5.017151 8.533700 9.556776 -40.873234 0.000000 0.000000 0.000000 -7.125000 0.000000 0.000000 -37.911858 67.517056 21.749159 0.000000 0.000000 0.000000 -12.615725 7.100848 20.387933 -17.908798 -28.039866 -4.506441 -21.711244 -21.459882 -13.897722 0.000000 0.000000 0.000000 7.125000 0.000000 0.000000 3.901429 15.091038 2.758732
8.181297 17.647868 11.001443 -188.560035 -60.651291 -166.916189 0.000000 0.000000 0.000000 -21.514001 5.754811 -19.431074 3.355760 11.249701 33.126866 1.191605 0.973033 -21.003941 0.094857 -1.986069 -5.467321 0.000000 0.000000 0.000000 20.648289 -19.359344 -31.198094 -6.019062 -14.444018 45.052914 -1.236732 -21.869067 -37.969717 -2.334931 -9.531330 27.472029 2.022590 3.220044 4.089497 0.642216 4.389915 0.088890 -0.721738 2.167269 -2.095124 -7.783967 2.561754 -14.492586 -2.348571 5.671360 27.050521 1.169881 1.186858 11.045850 0.000000 0.000000 0.000000 8.918554 -3.929533 -4.687643 18.347431 -28.599619 4.714393 10.368628 11.028096 -41.784205 0.000000 0.000000 0.000000 -7.125000 0.000000 0.000000 -37.570709 68.777493 22.566170 0.000000 0.000000 0.000000 -12.659587 7.699174 20.431483 -19.141252 -29.593393 -5.100631 -20.440053 -22.094212 -16.086326 0.000000 0.000000 0.000000 7.125000 0.000000 0.000000 4.869846 12.919894 3.671433
8.194491 17.618567 10.989458 -193.545603 -67.305734 -162.638329 0.000000 0.000000 0.000000 -21.738257 3.918465 -18.828276 3.245661 11.082295 32.558164 0.999073 -3.994906 -18.005206 0.125972 -2.274803 -6.266374 0.000000 0.000000 0.000000 18.681824 -20.036591 -31.592413 -7.235344 -15.524518 49.754707 -1.464079 -20.902258 -38.124549 -3.280521 -11.124078 32.712894 0.954257 2.596940 3.852375 0.672311 3.505651 0.345164 -0.030207 1.739863 -1.782723 -7.668893 2.616031 -14.893020 -2.710104 5.921555 27.290398 1.065498 1.260657 11.231518 0.000000 0.000000 0.000000 9.161846 -4.711838 -4.333686 17.469135 -27.471418 4.301865 9.001216 11.104938 -40.942226 0.000000 0.000000 0.000000 -7.125000 0.000000 0.000000 -37.540717 67.712163 21.674212 0.000000 0.000000 0.000000 -12.329211 6.882395 19.924352 -19.335368 -29.833124 -5.196739 -21.142345 -22.320132 -16.025689 0.000000 0.000000 0.000000 7.125000 0.000000 0.000000 4.396626 12.900677 3.314245
8.175703 17.582444 10.910784 -205.525474 -72.373646 -151.618157 0.000000 0.000000 0.000000 -23.705559 2.742988 -17.640238 3.048270 10.772741 31.517313 0.760237 -8.169268 -15.719669 0.190634 -2.806102 -7.739714 0.000000 0.000000 0.000000 14.836360 -19.226945 -30.741167 -8.094846 -16.188341 52.903143 -0.782783 -20.800978 -34.355761 -3.803881 -11.893625 35.358218 -2.523793 2.376787 3.418659 0.438837 3.075707 0.508772 1.714728 1.548942 -1.548387 -7.665065 2.626989 -14.691820 -2.279830 5.843317 27.786670 1.213941 1.267581 11.362390 0.000000 0.000000 0.000000 9.900143 -5.108263 -4.980098 16.465971 -26.147984 3.849232 9.207367 11.543906 -41.208248 0.000000 0.000000 0.000000 -7.125000 0.000000 0.000000 -37.770899 67.977538 22.041584 0.000000 0.000000 0.000000 -11.536417 6.755643 18.092479 -19.460126 -29.986232 -5.258956 -20.347814 -23.233784 -18.664902 0.000000 0.000000 0.000000 7.125000 0.000000 0.000000 5.079887 10.228674 4.114846
8.160772 17.580424 10.942569 -210.224270 -76.992944 -147.714878 0.000000 0.000000 0.000000 -22.550245 1.155206 -16.696435 3.074614 10.814830 31.657913 0.616103 -10.564420 -14.813360 0.153227 -2.515142 -6.932071 0.000000 0.000000 0.000000 14.186225 -16.518729 -28.441419 -8.459455 -16.446976 54.201176 -0.523805 -18.658624 -30.293378 -2.881703 -10.497428 30.606750 -1.090087 2.964540 3.880375 0.853584 3.904175 1.069180 1.291284 1.946366 -1.206039 -7.912790 2.255776 -14.774227 -2.136860 5.406160 27.786754 1.255077 1.085285 11.382649 0.000000 0.000000 0.000000 10.081834 -6.516537 -6.157329 15.591407 -24.963425 3.471784 7.772944 11.861684 -41.292584 0.000000 0.000000 0.000000 -7.125000 0.000000 0.000000 -39.375125 67.598313 22.761367 0.000000 0.000000 0.000000 -10.986395 5.408374 15.589827 -18.897799 -29.291354 -4.980814 -21.847308 -22.535410 -17.447094 0.000000 0.000000 0.000000 7.125000 0.000000 0.000000 4.015519 11.309059 3.158322
